<?xml version="1.0" encoding="UTF-8" standalone="no"?>
<!-- Created with Inkscape (http://www.inkscape.org/) -->

<svg
   xmlns:dc="http://purl.org/dc/elements/1.1/"
   xmlns:cc="http://creativecommons.org/ns#"
   xmlns:rdf="http://www.w3.org/1999/02/22-rdf-syntax-ns#"
   xmlns:svg="http://www.w3.org/2000/svg"
   xmlns="http://www.w3.org/2000/svg"
   xmlns:sodipodi="http://sodipodi.sourceforge.net/DTD/sodipodi-0.dtd"
   xmlns:inkscape="http://www.inkscape.org/namespaces/inkscape"
   width="64"
   height="64"
   viewBox="0 0 16.933333 16.933334"
   version="1.1"
   id="svg8"
   inkscape:version="0.92.5 (2060ec1f9f, 2020-04-08)"
   sodipodi:docname="power.svg"
   inkscape:export-filename="/home/xdocz/work/panduza-react-app/public/img/power_sup.png"
   inkscape:export-xdpi="96"
   inkscape:export-ydpi="96">
  <defs
     id="defs2" />
  <sodipodi:namedview
     id="base"
     pagecolor="#ffffff"
     bordercolor="#666666"
     borderopacity="1.0"
     inkscape:pageopacity="0.0"
     inkscape:pageshadow="2"
     inkscape:zoom="7.919596"
     inkscape:cx="24.744774"
     inkscape:cy="38.89023"
     inkscape:document-units="mm"
     inkscape:current-layer="layer1"
     showgrid="false"
     units="px"
     inkscape:window-width="1848"
     inkscape:window-height="1016"
     inkscape:window-x="72"
     inkscape:window-y="27"
     inkscape:window-maximized="1" />
  <metadata
     id="metadata5">
    <rdf:RDF>
      <cc:Work
         rdf:about="">
        <dc:format>image/svg+xml</dc:format>
        <dc:type
           rdf:resource="http://purl.org/dc/dcmitype/StillImage" />
        <dc:title />
      </cc:Work>
    </rdf:RDF>
  </metadata>
  <g
     inkscape:label="Calque 1"
     inkscape:groupmode="layer"
     id="layer1"
     transform="translate(0,-280.06665)">
    <rect
       style="fill:#f39c12;fill-opacity:1;stroke-width:0.26372707"
       id="rect4540"
       width="16.933332"
       height="16.933332"
       x="0"
       y="280.06665" />
    <g
       class=""
       id="g4522"
       transform="matrix(0.03088801,0,0,0.03088801,0.34407935,280.72522)"
       style="fill:#ffffff;fill-opacity:1">
      <path
         style="fill:#ffffff;fill-opacity:1"
         inkscape:connector-curvature="0"
         d="M 280.938,19.22 259.844,83.688 204.78,48 l 6.47,87.313 -85.094,-55.97 47.78,-14.874 -72.06,-43.75 h -79.47 v 63.343 l 96.938,46.093 -58.78,17.5 L 189.5,225.78 94.594,229 168.5,276.125 65.75,317.938 l 84,24.812 -66.78,78.22 96.56,-25.283 11.19,98.188 65.093,-76.72 47.375,76.126 18.343,-72.842 47.564,24.718 -10.563,-117 84.626,51.28 -50.47,7.252 99.812,69.341 1.03,-82.5 -63.31,-53.436 54.967,-4.594 -100.906,-66.375 85.158,-38.656 -72.282,-24.314 70.47,-34.625 -57.907,-20.06 44.53,-51.5 -80.906,14.343 5.97,-70.657 -61.158,58.5 -37.22,-62.937 z m -1.407,72.25 9,2.405 68.22,18.28 9.03,2.44 -2.405,9.03 -2.28,8.5 21.934,5.875 9.033,2.406 -2.438,9.03 -65.03,242.75 -2.408,9.033 -9.03,-2.44 L 183,363.907 l -9.03,-2.406 2.405,-9.03 65.063,-242.75 2.406,-9 9.03,2.405 21.94,5.875 2.28,-8.5 2.437,-9.03 z m 13.064,22.75 -4.78,17.78 -17.877,-4.78 0.032,-0.126 -12.908,-3.47 -60.218,224.657 112.094,30.033 60.218,-224.657 -12.906,-3.47 -0.03,0.158 -17.908,-4.813 4.782,-17.78 -50.5,-13.53 z m -22.125,32.5 75.5,20.218 -27.033,100.812 -23.78,-10.72 17.624,-33.717 -55.874,-25.938 13.563,-50.656 z m -27.72,103.405 24.22,10.938 -13.595,25.687 52.844,28.438 -10.72,40 -75.47,-20.22 22.72,-84.843 z"
         id="path4520" />
    </g>
  </g>
</svg>
